<?xml version="1.0" encoding="UTF-8"?>
<svg class="fill-current text-white h-4" xmlns="http://www.w3.org/2000/svg" viewBox="0 0 598.34 41.09">
    <path d="M43.24,206H51.7v33H68.84v7H43.24Z" transform="translate(-43.24 -205.48)"></path>
    <path d="M141.21,206H157c9.08,0,14.33,5.12,14.33,13.07,0,5.47-2.52,9.43-7.07,11.39l8.5,15.54h-9.34l-7.57-14.18h-6.18V246h-8.45Zm14.2,19c4.84,0,7.2-2,7.2-6s-2.36-6.15-7.24-6.15h-5.71v12.11Z" transform="translate(-43.24 -205.48)"></path>
    <path d="M188.88,246l13.81-40h10.9l13.79,40h-9.06l-3-9.12H200.91L198,246Zm24.34-15.72-4.92-15.14H208l-4.92,15.14Z" transform="translate(-43.24 -205.48)"></path>
    <path d="M257.87,236.41h.37L267.93,206h9.37l-13.79,40h-10.9L238.8,206h9.4Z" transform="translate(-43.24 -205.48)"></path>
    <path d="M295.86,206h26.95v7h-18.5v9.53h17.11v7H304.31v9.55h18.58v7h-27Z" transform="translate(-43.24 -205.48)"></path>
    <path d="M343.3,206h8.45v33H368.9v7H343.3Z" transform="translate(-43.24 -205.48)"></path>
    <path d="M414.76,206h26.95v7H423.22v9.53h17.11v7H423.22v9.55h18.57v7h-27Z" transform="translate(-43.24 -205.48)"></path>
    <path d="M478.2,219.66h.31L486.62,206h9.55L484,226l12.48,20h-9.73l-8.2-13.65h-.31L470,246h-9.69l12.52-20-12.29-20h9.59Z" transform="translate(-43.24 -205.48)"></path>
    <path d="M540.15,220c-.64-4.4-4-7.07-8.61-7.07-6.19,0-10.25,4.74-10.25,13.06,0,8.56,4.12,13.07,10.19,13.07,4.51,0,7.87-2.46,8.67-6.74l8.56,0c-.92,7.36-7.11,14.18-17.37,14.18-10.7,0-18.63-7.5-18.63-20.55s8.07-20.54,18.63-20.54c9.26,0,16.25,5.31,17.37,14.55Z" transform="translate(-43.24 -205.48)"></path>
    <path d="M568.53,206h27v7H577v9.53H594.1v7H577v9.55h18.57v7h-27Z" transform="translate(-43.24 -205.48)"></path>
    <path d="M616,206h8.46v33h17.15v7H616Z" transform="translate(-43.24 -205.48)"></path>
    <rect x="78.3" y="221.67" width="39.71" height="8.34" transform="matrix(0.3, -0.95, 0.95, 0.3, -190.07, 45.2)" fill="#f7a81f"></rect>
    <rect x="109.79" y="205.99" width="8.34" height="39.71" transform="translate(-106.51 -160.13) rotate(-17.7)" fill="#f7a81f"></rect>
    <rect x="57.01" y="0.18" width="11.65" height="2.93" fill="#f7a81f"></rect>
</svg>